<?xml version="1.0" encoding="UTF-8" ?>
<svg version="1.1" width="480" height="320" xmlns="http://www.w3.org/2000/svg" shape-rendering="crispEdges">
<rect x="0" y="0" width="480" height="40" fill="#201533" />
<rect x="0" y="40" width="80" height="10" fill="#252446" />
<rect x="80" y="40" width="20" height="20" fill="#201533" />
<rect x="100" y="40" width="40" height="10" fill="#252446" />
<rect x="140" y="40" width="20" height="20" fill="#201533" />
<rect x="160" y="40" width="80" height="10" fill="#252446" />
<rect x="240" y="40" width="20" height="20" fill="#201533" />
<rect x="260" y="40" width="40" height="10" fill="#252446" />
<rect x="300" y="40" width="20" height="20" fill="#201533" />
<rect x="320" y="40" width="160" height="10" fill="#252446" />
<rect x="0" y="50" width="10" height="110" fill="#252446" />
<rect x="10" y="50" width="20" height="80" fill="#FFFFFF" />
<rect x="30" y="50" width="20" height="30" fill="#252446" />
<rect x="50" y="50" width="20" height="80" fill="#FFFFFF" />
<rect x="70" y="50" width="10" height="110" fill="#252446" />
<rect x="100" y="50" width="10" height="20" fill="#252446" />
<rect x="110" y="50" width="20" height="20" fill="#FFFFFF" />
<rect x="130" y="50" width="10" height="20" fill="#252446" />
<rect x="160" y="50" width="10" height="110" fill="#252446" />
<rect x="170" y="50" width="20" height="40" fill="#FFFFFF" />
<rect x="190" y="50" width="20" height="40" fill="#252446" />
<rect x="210" y="50" width="20" height="60" fill="#FFFFFF" />
<rect x="230" y="50" width="10" height="90" fill="#252446" />
<rect x="260" y="50" width="10" height="20" fill="#252446" />
<rect x="270" y="50" width="20" height="20" fill="#FFFFFF" />
<rect x="290" y="50" width="10" height="20" fill="#252446" />
<rect x="320" y="50" width="10" height="50" fill="#252446" />
<rect x="330" y="50" width="60" height="20" fill="#FFFFFF" />
<rect x="390" y="50" width="20" height="50" fill="#252446" />
<rect x="410" y="50" width="60" height="20" fill="#FFFFFF" />
<rect x="470" y="50" width="10" height="110" fill="#252446" />
<rect x="80" y="60" width="20" height="10" fill="#252446" />
<rect x="140" y="60" width="20" height="10" fill="#252446" />
<rect x="240" y="60" width="20" height="10" fill="#252446" />
<rect x="300" y="60" width="20" height="10" fill="#252446" />
<rect x="80" y="70" width="10" height="90" fill="#252446" />
<rect x="90" y="70" width="20" height="60" fill="#FFFFFF" />
<rect x="110" y="70" width="20" height="20" fill="#0098DB" />
<rect x="130" y="70" width="20" height="60" fill="#FFFFFF" />
<rect x="150" y="70" width="10" height="90" fill="#252446" />
<rect x="240" y="70" width="10" height="90" fill="#252446" />
<rect x="250" y="70" width="20" height="60" fill="#FFFFFF" />
<rect x="270" y="70" width="20" height="20" fill="#0098DB" />
<rect x="290" y="70" width="20" height="60" fill="#FFFFFF" />
<rect x="310" y="70" width="10" height="90" fill="#252446" />
<rect x="330" y="70" width="20" height="20" fill="#0098DB" />
<rect x="350" y="70" width="20" height="60" fill="#FFFFFF" />
<rect x="370" y="70" width="20" height="20" fill="#0098DB" />
<rect x="410" y="70" width="20" height="60" fill="#FFFFFF" />
<rect x="430" y="70" width="20" height="20" fill="#0098DB" />
<rect x="450" y="70" width="20" height="60" fill="#FFFFFF" />
<rect x="30" y="80" width="20" height="20" fill="#FFFFFF" />
<rect x="110" y="90" width="20" height="20" fill="#FFFFFF" />
<rect x="170" y="90" width="20" height="20" fill="#0098DB" />
<rect x="190" y="90" width="20" height="40" fill="#FFFFFF" />
<rect x="270" y="90" width="20" height="20" fill="#FFFFFF" />
<rect x="330" y="90" width="20" height="10" fill="#252446" />
<rect x="370" y="90" width="20" height="10" fill="#252446" />
<rect x="430" y="90" width="20" height="20" fill="#252446" />
<rect x="30" y="100" width="20" height="20" fill="#0098DB" />
<rect x="320" y="100" width="20" height="130" fill="#201533" />
<rect x="340" y="100" width="10" height="60" fill="#252446" />
<rect x="370" y="100" width="10" height="60" fill="#252446" />
<rect x="380" y="100" width="20" height="130" fill="#201533" />
<rect x="400" y="100" width="10" height="60" fill="#252446" />
<rect x="110" y="110" width="20" height="20" fill="#0098DB" />
<rect x="170" y="110" width="20" height="20" fill="#FFFFFF" />
<rect x="210" y="110" width="20" height="20" fill="#0098DB" />
<rect x="270" y="110" width="20" height="20" fill="#0098DB" />
<rect x="430" y="110" width="20" height="20" fill="#FFFFFF" />
<rect x="30" y="120" width="20" height="40" fill="#252446" />
<rect x="10" y="130" width="20" height="20" fill="#0098DB" />
<rect x="50" y="130" width="20" height="20" fill="#0098DB" />
<rect x="90" y="130" width="20" height="20" fill="#0098DB" />
<rect x="110" y="130" width="20" height="30" fill="#252446" />
<rect x="130" y="130" width="20" height="20" fill="#0098DB" />
<rect x="170" y="130" width="40" height="20" fill="#0098DB" />
<rect x="210" y="130" width="20" height="10" fill="#252446" />
<rect x="250" y="130" width="20" height="20" fill="#0098DB" />
<rect x="270" y="130" width="20" height="30" fill="#252446" />
<rect x="290" y="130" width="20" height="20" fill="#0098DB" />
<rect x="350" y="130" width="20" height="20" fill="#0098DB" />
<rect x="410" y="130" width="60" height="20" fill="#0098DB" />
<rect x="210" y="140" width="10" height="20" fill="#252446" />
<rect x="220" y="140" width="20" height="30" fill="#201533" />
<rect x="10" y="150" width="20" height="10" fill="#252446" />
<rect x="50" y="150" width="20" height="10" fill="#252446" />
<rect x="90" y="150" width="20" height="10" fill="#252446" />
<rect x="130" y="150" width="20" height="10" fill="#252446" />
<rect x="170" y="150" width="40" height="10" fill="#252446" />
<rect x="250" y="150" width="20" height="10" fill="#252446" />
<rect x="290" y="150" width="20" height="10" fill="#252446" />
<rect x="350" y="150" width="20" height="10" fill="#252446" />
<rect x="410" y="150" width="60" height="10" fill="#252446" />
<rect x="0" y="160" width="220" height="10" fill="#201533" />
<rect x="240" y="160" width="80" height="10" fill="#201533" />
<rect x="340" y="160" width="40" height="70" fill="#201533" />
<rect x="400" y="160" width="80" height="70" fill="#201533" />
<rect x="0" y="170" width="290" height="10" fill="#203562" />
<rect x="290" y="170" width="30" height="60" fill="#201533" />
<rect x="0" y="180" width="10" height="50" fill="#203562" />
<rect x="10" y="180" width="30" height="10" fill="#FFFFFF" />
<rect x="40" y="180" width="10" height="50" fill="#203562" />
<rect x="50" y="180" width="20" height="10" fill="#FFFFFF" />
<rect x="70" y="180" width="30" height="10" fill="#203562" />
<rect x="100" y="180" width="10" height="10" fill="#FFFFFF" />
<rect x="110" y="180" width="20" height="10" fill="#203562" />
<rect x="130" y="180" width="10" height="40" fill="#FFFFFF" />
<rect x="140" y="180" width="10" height="50" fill="#203562" />
<rect x="150" y="180" width="20" height="10" fill="#FFFFFF" />
<rect x="170" y="180" width="20" height="10" fill="#203562" />
<rect x="190" y="180" width="10" height="40" fill="#FFFFFF" />
<rect x="200" y="180" width="10" height="50" fill="#203562" />
<rect x="210" y="180" width="20" height="10" fill="#FFFFFF" />
<rect x="230" y="180" width="20" height="10" fill="#203562" />
<rect x="250" y="180" width="30" height="10" fill="#FFFFFF" />
<rect x="280" y="180" width="10" height="60" fill="#203562" />
<rect x="10" y="190" width="10" height="40" fill="#203562" />
<rect x="20" y="190" width="10" height="30" fill="#FFFFFF" />
<rect x="30" y="190" width="10" height="40" fill="#203562" />
<rect x="50" y="190" width="10" height="30" fill="#FFFFFF" />
<rect x="60" y="190" width="10" height="10" fill="#203562" />
<rect x="70" y="190" width="10" height="10" fill="#FFFFFF" />
<rect x="80" y="190" width="10" height="40" fill="#203562" />
<rect x="90" y="190" width="10" height="30" fill="#FFFFFF" />
<rect x="100" y="190" width="10" height="10" fill="#203562" />
<rect x="110" y="190" width="10" height="30" fill="#FFFFFF" />
<rect x="120" y="190" width="10" height="40" fill="#203562" />
<rect x="150" y="190" width="10" height="30" fill="#FFFFFF" />
<rect x="160" y="190" width="10" height="40" fill="#203562" />
<rect x="170" y="190" width="10" height="30" fill="#FFFFFF" />
<rect x="180" y="190" width="10" height="40" fill="#203562" />
<rect x="210" y="190" width="10" height="30" fill="#FFFFFF" />
<rect x="220" y="190" width="10" height="40" fill="#203562" />
<rect x="230" y="190" width="10" height="30" fill="#FFFFFF" />
<rect x="240" y="190" width="10" height="50" fill="#203562" />
<rect x="250" y="190" width="10" height="30" fill="#FFFFFF" />
<rect x="260" y="190" width="20" height="10" fill="#203562" />
<rect x="60" y="200" width="10" height="10" fill="#FFFFFF" />
<rect x="70" y="200" width="10" height="10" fill="#203562" />
<rect x="100" y="200" width="10" height="10" fill="#FFFFFF" />
<rect x="260" y="200" width="10" height="10" fill="#203562" />
<rect x="270" y="200" width="10" height="20" fill="#FFFFFF" />
<rect x="60" y="210" width="10" height="20" fill="#203562" />
<rect x="70" y="210" width="10" height="10" fill="#FFFFFF" />
<rect x="100" y="210" width="10" height="20" fill="#203562" />
<rect x="260" y="210" width="10" height="10" fill="#FFFFFF" />
<rect x="20" y="220" width="10" height="10" fill="#203562" />
<rect x="50" y="220" width="10" height="10" fill="#203562" />
<rect x="70" y="220" width="10" height="10" fill="#203562" />
<rect x="90" y="220" width="10" height="10" fill="#203562" />
<rect x="110" y="220" width="10" height="10" fill="#203562" />
<rect x="130" y="220" width="10" height="10" fill="#203562" />
<rect x="150" y="220" width="10" height="10" fill="#203562" />
<rect x="170" y="220" width="10" height="10" fill="#203562" />
<rect x="190" y="220" width="10" height="10" fill="#203562" />
<rect x="210" y="220" width="10" height="10" fill="#203562" />
<rect x="230" y="220" width="10" height="70" fill="#203562" />
<rect x="250" y="220" width="30" height="20" fill="#203562" />
<rect x="0" y="230" width="230" height="90" fill="#201533" />
<rect x="290" y="230" width="190" height="10" fill="#203562" />
<rect x="240" y="240" width="30" height="10" fill="#FFFFFF" />
<rect x="270" y="240" width="10" height="50" fill="#203562" />
<rect x="280" y="240" width="20" height="10" fill="#FFFFFF" />
<rect x="300" y="240" width="20" height="10" fill="#203562" />
<rect x="320" y="240" width="30" height="10" fill="#FFFFFF" />
<rect x="350" y="240" width="10" height="50" fill="#203562" />
<rect x="360" y="240" width="10" height="40" fill="#FFFFFF" />
<rect x="370" y="240" width="10" height="30" fill="#203562" />
<rect x="380" y="240" width="10" height="40" fill="#FFFFFF" />
<rect x="390" y="240" width="10" height="50" fill="#203562" />
<rect x="400" y="240" width="20" height="10" fill="#FFFFFF" />
<rect x="420" y="240" width="20" height="10" fill="#203562" />
<rect x="440" y="240" width="20" height="10" fill="#FFFFFF" />
<rect x="460" y="240" width="20" height="10" fill="#203562" />
<rect x="240" y="250" width="10" height="30" fill="#FFFFFF" />
<rect x="250" y="250" width="20" height="10" fill="#203562" />
<rect x="280" y="250" width="10" height="30" fill="#FFFFFF" />
<rect x="290" y="250" width="10" height="10" fill="#203562" />
<rect x="300" y="250" width="10" height="10" fill="#FFFFFF" />
<rect x="310" y="250" width="10" height="40" fill="#203562" />
<rect x="320" y="250" width="10" height="30" fill="#FFFFFF" />
<rect x="330" y="250" width="10" height="20" fill="#203562" />
<rect x="340" y="250" width="10" height="30" fill="#FFFFFF" />
<rect x="400" y="250" width="10" height="30" fill="#FFFFFF" />
<rect x="410" y="250" width="10" height="40" fill="#203562" />
<rect x="420" y="250" width="10" height="30" fill="#FFFFFF" />
<rect x="430" y="250" width="10" height="40" fill="#203562" />
<rect x="440" y="250" width="10" height="30" fill="#FFFFFF" />
<rect x="450" y="250" width="10" height="20" fill="#203562" />
<rect x="460" y="250" width="10" height="20" fill="#FFFFFF" />
<rect x="470" y="250" width="10" height="40" fill="#203562" />
<rect x="250" y="260" width="10" height="10" fill="#203562" />
<rect x="260" y="260" width="10" height="20" fill="#FFFFFF" />
<rect x="290" y="260" width="10" height="10" fill="#FFFFFF" />
<rect x="300" y="260" width="10" height="10" fill="#203562" />
<rect x="250" y="270" width="10" height="10" fill="#FFFFFF" />
<rect x="290" y="270" width="10" height="20" fill="#203562" />
<rect x="300" y="270" width="10" height="10" fill="#FFFFFF" />
<rect x="330" y="270" width="10" height="10" fill="#FFFFFF" />
<rect x="370" y="270" width="10" height="10" fill="#FFFFFF" />
<rect x="450" y="270" width="10" height="10" fill="#FFFFFF" />
<rect x="460" y="270" width="10" height="20" fill="#203562" />
<rect x="240" y="280" width="30" height="10" fill="#203562" />
<rect x="280" y="280" width="10" height="10" fill="#203562" />
<rect x="300" y="280" width="10" height="10" fill="#203562" />
<rect x="320" y="280" width="30" height="10" fill="#203562" />
<rect x="360" y="280" width="30" height="10" fill="#203562" />
<rect x="400" y="280" width="10" height="10" fill="#203562" />
<rect x="420" y="280" width="10" height="10" fill="#203562" />
<rect x="440" y="280" width="20" height="10" fill="#203562" />
<rect x="230" y="290" width="250" height="30" fill="#201533" />
</svg>