<?xml version="1.0" encoding="UTF-8"?>
<svg version="1.1" xmlns="http://www.w3.org/2000/svg" width="279" height="279">
<path d="M0 0 C0.82324619 -0.00679667 1.64649237 -0.01359334 2.49468541 -0.02059597 C5.2335061 -0.0394775 7.97187612 -0.03713703 10.71075439 -0.03465271 C12.68259247 -0.04363594 14.65442529 -0.05384548 16.62625122 -0.06518555 C21.96941638 -0.09163333 27.31243729 -0.09871684 32.65566158 -0.10063291 C35.9979673 -0.10276863 39.34023661 -0.1091796 42.68253326 -0.11712456 C54.35439879 -0.1448616 66.02616169 -0.15713223 77.69805908 -0.1547699 C88.55904598 -0.15296842 99.41958545 -0.18461234 110.28045917 -0.23200089 C119.6208794 -0.27129556 128.9611538 -0.28731872 138.30165601 -0.28540367 C143.8733299 -0.28464066 149.44460602 -0.29308593 155.0161972 -0.32493782 C160.25970553 -0.35409696 165.50243899 -0.35414075 170.74597549 -0.33238792 C172.66312168 -0.32926458 174.5803171 -0.33625462 176.4973793 -0.3544693 C189.47785282 -0.4697484 199.27665785 0.78135212 209.45001221 9.71363831 C215.55293895 16.42685772 217.87098734 24.97424033 217.72344971 33.88551331 C216.97332547 40.78665627 213.99437632 46.79770356 210.23907471 52.54566956 C207.78959036 56.33085998 205.3599115 60.12417418 202.97735596 63.95191956 C202.39510254 64.88624817 201.81284912 65.82057678 201.21295166 66.78321838 C200.61055664 67.75025696 200.00816162 68.71729553 199.38751221 69.71363831 C193.23954593 79.56741727 187.02753735 89.37850447 180.78204346 99.17066956 C177.65681744 104.07169461 174.55030054 108.98431105 171.45001221 113.90113831 C166.54653719 121.67609877 161.61483936 129.43281708 156.67633057 137.18556213 C152.30793814 144.04602708 147.9572777 150.91748856 143.61993408 157.79762268 C141.10558687 161.78502179 138.58167543 165.76604143 136.04766846 169.74098206 C133.6399194 173.52007979 131.25234102 177.3108451 128.87969971 181.11207581 C127.69480387 183.00009664 126.50990804 184.88811747 125.32501221 186.77613831 C124.73075439 187.73391174 124.13649658 188.69168518 123.52423096 189.67848206 C120.51352694 194.45706083 117.69385477 198.65995053 113.45001221 202.40113831 C112.80419189 202.97219299 112.15837158 203.54324768 111.49298096 204.13160706 C104.05638267 209.97129371 96.81640961 211.28234717 87.45001221 210.40113831 C79.05892248 208.98328904 72.20963988 205.45783089 67.06866455 198.54322815 C64.13751767 194.30189512 61.39884234 189.946725 58.75274658 185.52272034 C57.86534882 184.0775392 56.93731882 182.6567143 55.97540283 181.26002502 C52.47522476 176.11476326 52.47522476 176.11476326 52.36016846 172.85816956 C53.89608126 169.39548443 55.82398838 166.25252781 57.88751221 163.08863831 C58.80721034 161.65271398 59.72646938 160.21650834 60.64532471 158.78004456 C61.11486572 158.05059631 61.58440674 157.32114807 62.06817627 156.56959534 C63.36366069 154.53664611 64.6282232 152.4887394 65.87969971 150.42848206 C75.1483843 135.20299071 85.44697456 120.60447972 97.45001221 107.40113831 C98.15093994 106.62431702 98.15093994 106.62431702 98.86602783 105.83180237 C107.21019395 96.70290074 118.8716433 85.22020172 131.84835815 84.21543884 C134.77215794 84.13679706 137.68923378 84.12399807 140.61407471 84.13551331 C141.68370453 84.13359985 142.75333435 84.1316864 143.8553772 84.12971497 C146.10958085 84.12835747 148.36379244 84.13202342 150.61798096 84.14039612 C154.06998181 84.15112267 157.52146475 84.14047502 160.97344971 84.12770081 C163.16615919 84.12902206 165.35886835 84.13158376 167.55157471 84.13551331 C168.58392242 84.13146484 169.61627014 84.12741638 170.67990112 84.12324524 C172.12192398 84.13270172 172.12192398 84.13270172 173.59307861 84.14234924 C174.43657867 84.14394043 175.28007874 84.14553162 176.1491394 84.14717102 C178.64909249 84.42311252 180.28791568 85.14726312 182.45001221 86.40113831 C182.10242026 79.21757138 180.79590536 73.27558698 176.45001221 67.40113831 C166.84241784 59.16111142 153.87671849 57.95838831 141.76251221 56.71363831 C140.57206299 56.58408752 139.38161377 56.45453674 138.15509033 56.32106018 C135.25414898 56.00650028 132.35260395 55.7000146 129.45001221 55.40113831 C129.30305908 54.80945862 129.15610596 54.21777893 129.00469971 53.60816956 C128.78040283 52.81797424 128.55610596 52.02777893 128.32501221 51.21363831 C128.01177002 50.04768127 128.01177002 50.04768127 127.69219971 48.85816956 C125.898912 45.31106904 123.99769853 43.13603952 120.45001221 41.40113831 C115.58619176 40.63718355 110.72670753 40.70990222 105.81573486 40.74171448 C104.3173184 40.73325668 102.81891293 40.72261046 101.32052612 40.70994568 C97.26300586 40.68183058 93.20601481 40.68426526 89.14842653 40.69223952 C84.90426131 40.695367 80.66026393 40.67032321 76.41616821 40.64828491 C68.38399642 40.61084783 60.35199394 40.59869712 52.31974351 40.59566051 C43.17338491 40.59096931 34.02719586 40.55804404 24.88091207 40.52276266 C6.07062844 40.45083456 -12.73957587 40.41431241 -31.54998779 40.40113831 C-34.0521923 32.89452478 -33.11582055 24.84554601 -29.88592529 17.72145081 C-23.21035882 6.12704588 -13.29093874 -0.08184027 0 0 Z " fill="#F39100" transform="translate(59.54998779296875,44.59886169433594)"/>
<path d="M0 0 C9.70188431 -0.06983608 19.40368068 -0.12298062 29.10576248 -0.15543652 C33.61194047 -0.17102202 38.11794515 -0.19212851 42.62402344 -0.22631836 C46.98124622 -0.25916789 51.3383034 -0.27690637 55.69564056 -0.28463173 C57.34923658 -0.2901297 59.00282462 -0.30086442 60.65634918 -0.31719017 C75.99912571 -0.46250354 88.47538576 0.85929535 100.03515625 11.953125 C107.57649381 20.08688185 110.9057359 28.90376152 111.03515625 40.01953125 C110.41268048 51.84657097 105.23319373 60.76399282 98.9375 70.5625 C98.27427734 71.60881592 97.61105469 72.65513184 96.92773438 73.7331543 C94.96164236 76.82851686 92.98351509 79.91577947 91 83 C90.45230957 83.85271484 89.90461914 84.70542969 89.34033203 85.58398438 C87.03065393 89.17467907 84.71025938 92.7579263 82.375 96.33203125 C80.84116059 98.68502448 79.34055759 101.05311536 77.875 103.44921875 C77.25625 104.45597656 76.6375 105.46273437 76 106.5 C75.484375 107.3559375 74.96875 108.211875 74.4375 109.09375 C73 111 73 111 70 112 C69.12601563 110.59814453 69.12601563 110.59814453 68.234375 109.16796875 C62.03165873 99.22692804 55.78642761 89.31331066 49.5234375 79.41015625 C48.03510529 77.05553836 46.5484756 74.6998557 45.0625 72.34375 C39.72633629 63.88430354 34.37303057 55.43608454 29 47 C23.12059692 37.76796611 17.25775694 28.52574897 11.42578125 19.26367188 C10.4552506 17.72278829 9.4838629 16.18244426 8.51171875 14.64257812 C7.0888575 12.3881502 5.66900359 10.13185747 4.25 7.875 C3.81913086 7.19324707 3.38826172 6.51149414 2.94433594 5.80908203 C0 1.1144884 0 1.1144884 0 0 Z " fill="#6F6E6E" transform="translate(2,94)"/>
</svg>
